<svg viewBox="0 0 24 24" fill="none" xmlns="http://www.w3.org/2000/svg">
<path d="M14.6238 16.7961C14.7254 16.7961 14.808 16.878 14.8082 16.9795V18.822C14.8082 18.9236 14.7255 19.0063 14.6238 19.0063H9.09719C8.99567 19.0062 8.91379 18.9235 8.91377 18.822V16.9795C8.91395 16.8781 8.99578 16.7963 9.09719 16.7961H14.6238Z" fill="currentColor" />
<path d="M10.2023 13.8493C10.3039 13.8493 10.3865 13.9313 10.3867 14.0327V15.8753C10.3864 15.9768 10.3038 16.0595 10.2023 16.0596H7.62336C7.52203 16.0593 7.4402 15.9767 7.43994 15.8753V14.0327C7.44012 13.9314 7.52195 13.8495 7.62336 13.8493H10.2023Z" fill="currentColor" />
<path d="M16.0977 13.8493C16.1992 13.8493 16.2818 13.9313 16.282 14.0327V15.8753C16.2817 15.9768 16.1991 16.0595 16.0977 16.0596H13.5187C13.4174 16.0593 13.3355 15.9767 13.3353 15.8753V14.0327C13.3354 13.9314 13.4173 13.8495 13.5187 13.8493H16.0977Z" fill="currentColor" />
<path d="M10.2023 10.9017C10.3039 10.9017 10.3865 10.9836 10.3867 11.0851V12.9276C10.3864 13.029 10.3039 13.112 10.2023 13.112H7.62336C7.52199 13.1118 7.4402 13.0289 7.43994 12.9276V11.0851C7.44013 10.9837 7.52196 10.9019 7.62336 10.9017H10.2023Z" fill="currentColor" />
<path d="M10.2023 7.95401C10.3039 7.95402 10.3865 8.0359 10.3867 8.13743V9.97995C10.3867 10.0816 10.304 10.1643 10.2023 10.1643H7.62336C7.52185 10.1641 7.43996 10.0815 7.43994 9.97995V8.13743C7.44013 8.03601 7.52196 7.9542 7.62336 7.95401H10.2023Z" fill="currentColor" />
<path d="M16.0977 7.95401C16.1992 7.95402 16.2818 8.0359 16.282 8.13743V9.97995C16.282 10.0816 16.1993 10.1643 16.0977 10.1643H13.5187C13.4172 10.1641 13.3353 10.0815 13.3353 9.97995V8.13743C13.3355 8.03601 13.4173 7.9542 13.5187 7.95401H16.0977Z" fill="currentColor" />
<path d="M16.0977 5.00635C16.1992 5.00636 16.2818 5.08823 16.282 5.18977V7.03229C16.282 7.13397 16.1993 7.21661 16.0977 7.21663H9.09719C8.99569 7.21643 8.91379 7.13384 8.91377 7.03229V5.18977C8.91396 5.08835 8.9958 5.00655 9.09719 5.00635H16.0977Z" fill="currentColor" />
</svg>
